<svg xmlns="http://www.w3.org/2000/svg" viewBox="0 0 512 512" xml:space="preserve" enable-background="new 0 0 512 512"><path d="M411 156C411 70.533 341.468 1 256 1S101 70.533 101 156c0 17.916 3.007 35.351 8.94 51.98C44.12 228.388 1 289.345 1 356c0 85.468 69.532 155 155 155 39.981 0 77.944-15.186 106.896-42.759l.002-.001c46.339-44.151 58.826-108.818 39.149-164.195C365.401 284.355 411 225.13 411 156zM291 356c0 75.496-61.283 135-135 135-74.439 0-135-60.561-135-135 0-62.369 41.211-113.366 96.918-129.585 30.627 59.888 96.844 93.978 164.568 82.324C287.987 323.454 291 339.378 291 356zM138.309 222.147c55.639-7.23 108.597 20.136 135.382 67.687-56.931 7.38-109.203-21.275-135.382-67.687zm155.782 63.406c-30.589-59.96-96.84-93.983-164.575-82.28C123.867 188.196 121 172.332 121 156c0-74.439 60.561-135 135-135s135 60.561 135 135c0 61.764-41.386 113.224-96.909 129.553z" fill="#000000" class="fill-283954"></path><path d="M356 201c-85.775 0-155 69.548-155 155 0 42.825 17.083 82.687 48.102 112.24l.002.001C278.056 495.814 316.019 511 356 511c85.468 0 155-69.532 155-155 0-85.016-68.877-155-155-155zm0 290c-34.822 0-67.887-13.226-93.104-37.241l.002.001C235.88 428.018 221 393.3 221 356c0-74.414 60.277-135 135-135 73.84 0 135 58.977 135 135 0 74.439-60.561 135-135 135z" fill="#000000" class="fill-5596fb"></path></svg>