<?xml version="1.0" ?><!DOCTYPE svg  PUBLIC '-//W3C//DTD SVG 20010904//EN'  'http://www.w3.org/TR/2001/REC-SVG-20010904/DTD/svg10.dtd'><svg height="256.000000pt" preserveAspectRatio="xMidYMid meet" version="1.0" viewBox="0 0 256.000000 256.000000" width="256.000000pt" xmlns="http://www.w3.org/2000/svg"><g fill="#000000" stroke="none" transform="translate(0.000000,256.000000) scale(0.100000,-0.100000)"><path d="M2315 2473 c-103 -25 -307 -120 -415 -193 -274 -186 -616 -547 -1178 -1243 -147 -182 -152 -190 -152 -235 0 -132 156 -263 261 -219 50 20 470 353 779 616 177 150 502 477 613 615 165 207 289 515 248 614 -19 45 -81 63 -156 45z m25 -138 c18 -22 6 -92 -28 -167 -61 -133 -301 -438 -484 -613 -217 -209 -1008 -875 -1039 -875 -30 0 -74 26 -93 54 -38 59 -34 67 227 374 371 438 583 677 704 792 178 171 456 378 570 425 67 28 125 32 143 10z"/><path d="M480 668 c-25 -17 -90 -52 -145 -78 l-100 -47 -38 -129 c-21 -71 -54 -169 -72 -219 -46 -122 -43 -124 110 -69 66 24 165 57 220 73 l100 30 28 65 c16 35 51 104 78 151 28 48 48 94 45 102 -3 7 -23 21 -43 29 -49 21 -71 40 -94 87 -11 20 -25 37 -32 36 -6 0 -32 -14 -57 -31z m-28 -235 c25 -22 30 -60 14 -92 -37 -70 -146 -45 -146 34 0 71 79 106 132 58z"/></g></svg>